<svg width="800" height="450" viewBox="0 0 800 450" fill="none" xmlns="http://www.w3.org/2000/svg">
  <defs>
    <linearGradient id="authGradient" x1="64" y1="48" x2="736" y2="402" gradientUnits="userSpaceOnUse">
      <stop stop-color="#4F46E5" />
      <stop offset="1" stop-color="#0EA5E9" />
    </linearGradient>
    <linearGradient id="authCard" x1="96" y1="120" x2="360" y2="360" gradientUnits="userSpaceOnUse">
      <stop stop-color="#0F172A" stop-opacity="0.65" />
      <stop offset="1" stop-color="#0F172A" stop-opacity="0.15" />
    </linearGradient>
    <linearGradient id="authForm" x1="420" y1="120" x2="704" y2="360" gradientUnits="userSpaceOnUse">
      <stop stop-color="#0F172A" stop-opacity="0.75" />
      <stop offset="1" stop-color="#0F172A" stop-opacity="0.25" />
    </linearGradient>
    <filter id="cardShadow" x="0" y="0" width="800" height="450" filterUnits="userSpaceOnUse" color-interpolation-filters="sRGB">
      <feFlood flood-opacity="0" result="BackgroundImageFix" />
      <feGaussianBlur in="BackgroundImageFix" stdDeviation="18" />
      <feComposite in2="SourceAlpha" operator="in" result="effect1_backgroundBlur" />
      <feBlend in="SourceGraphic" in2="effect1_backgroundBlur" result="shape" />
    </filter>
  </defs>
  <rect x="24" y="20" width="752" height="410" rx="36" fill="#0B1120" opacity="0.85" />
  <rect x="40" y="36" width="720" height="378" rx="32" fill="url(#authGradient)" opacity="0.92" />
  <g filter="url(#cardShadow)">
    <rect x="96" y="120" width="248" height="208" rx="28" fill="url(#authCard)" />
    <rect x="132" y="156" width="176" height="20" rx="10" fill="#F8FAFC" fill-opacity="0.85" />
    <rect x="132" y="192" width="144" height="12" rx="6" fill="#C7D2FE" fill-opacity="0.65" />
    <rect x="132" y="212" width="110" height="12" rx="6" fill="#DBEAFE" fill-opacity="0.5" />
    <rect x="132" y="260" width="96" height="36" rx="18" fill="#6366F1" fill-opacity="0.9" />
  </g>
  <g filter="url(#cardShadow)">
    <rect x="420" y="120" width="284" height="208" rx="28" fill="url(#authForm)" />
    <rect x="452" y="156" width="220" height="18" rx="9" fill="#F8FAFC" fill-opacity="0.8" />
    <rect x="452" y="190" width="220" height="48" rx="16" fill="#0F172A" fill-opacity="0.55" />
    <rect x="452" y="246" width="220" height="48" rx="16" fill="#0F172A" fill-opacity="0.55" />
    <rect x="452" y="302" width="140" height="36" rx="18" fill="#A855F7" fill-opacity="0.95" />
  </g>
  <circle cx="640" cy="116" r="42" fill="#38BDF8" fill-opacity="0.2" />
  <circle cx="188" cy="308" r="32" fill="#7C3AED" fill-opacity="0.2" />
  <circle cx="560" cy="332" r="28" fill="#FBBF24" fill-opacity="0.28" />
</svg>
