<svg width="800" height="450" viewBox="0 0 800 450" fill="none" xmlns="http://www.w3.org/2000/svg">
  <defs>
    <linearGradient id="automationsGradient" x1="88" y1="72" x2="712" y2="360" gradientUnits="userSpaceOnUse">
      <stop stop-color="#38BDF8" />
      <stop offset="1" stop-color="#7C3AED" />
    </linearGradient>
    <filter id="automationShadow" x="0" y="0" width="800" height="450" filterUnits="userSpaceOnUse" color-interpolation-filters="sRGB">
      <feFlood flood-opacity="0" result="BackgroundImageFix" />
      <feGaussianBlur in="BackgroundImageFix" stdDeviation="18" />
      <feComposite in2="SourceAlpha" operator="in" result="effect1_backgroundBlur" />
      <feBlend in="SourceGraphic" in2="effect1_backgroundBlur" result="shape" />
    </filter>
  </defs>
  <rect x="40" y="44" width="720" height="362" rx="34" fill="url(#automationsGradient)" opacity="0.95" />
  <g filter="url(#automationShadow)">
    <rect x="164" y="152" width="472" height="64" rx="20" fill="#0F172A" fill-opacity="0.55" />
    <rect x="188" y="174" width="120" height="20" rx="10" fill="#F8FAFC" fill-opacity="0.85" />
    <circle cx="356" cy="184" r="18" fill="#22D3EE" fill-opacity="0.8" />
    <circle cx="424" cy="184" r="18" fill="#38BDF8" fill-opacity="0.8" />
    <circle cx="492" cy="184" r="18" fill="#A855F7" fill-opacity="0.85" />
    <circle cx="560" cy="184" r="18" fill="#FBBF24" fill-opacity="0.85" />
  </g>
  <g filter="url(#automationShadow)">
    <rect x="216" y="236" width="376" height="112" rx="28" fill="#0F172A" fill-opacity="0.4" />
    <rect x="244" y="264" width="196" height="16" rx="8" fill="#F8FAFC" fill-opacity="0.85" />
    <rect x="244" y="292" width="160" height="12" rx="6" fill="#94A3B8" fill-opacity="0.6" />
    <rect x="244" y="316" width="120" height="12" rx="6" fill="#38BDF8" fill-opacity="0.65" />
    <rect x="460" y="272" width="96" height="36" rx="18" fill="#A855F7" fill-opacity="0.9" />
  </g>
  <circle cx="192" cy="124" r="28" fill="#22D3EE" fill-opacity="0.24" />
  <circle cx="612" cy="116" r="34" fill="#7C3AED" fill-opacity="0.2" />
  <circle cx="608" cy="336" r="32" fill="#38BDF8" fill-opacity="0.22" />
</svg>
